<svg xmlns="http://www.w3.org/2000/svg" xmlns:xlink="http://www.w3.org/1999/xlink" width="470" height="468" viewBox="0 0 470 468"><defs><filter id="a" width="111.8%" height="111.9%" x="-5.9%" y="-3.9%" filterUnits="objectBoundingBox"><feOffset dy="5" in="SourceAlpha" result="shadowOffsetOuter1"/><feGaussianBlur in="shadowOffsetOuter1" result="shadowBlurOuter1" stdDeviation="4"/><feColorMatrix in="shadowBlurOuter1" result="shadowMatrixOuter1" values="0 0 0 0 0 0 0 0 0 0 0 0 0 0 0 0 0 0 0.078125 0"/><feOffset dy="4" in="SourceAlpha" result="shadowOffsetOuter2"/><feGaussianBlur in="shadowOffsetOuter2" result="shadowBlurOuter2" stdDeviation="5.5"/><feColorMatrix in="shadowBlurOuter2" result="shadowMatrixOuter2" values="0 0 0 0 0 0 0 0 0 0 0 0 0 0 0 0 0 0 0.210824275 0"/><feMerge><feMergeNode in="shadowMatrixOuter1"/><feMergeNode in="shadowMatrixOuter2"/></feMerge></filter><path id="b" d="M9.635 132.808C24.782 59.782 71.388 19.109 144.085 6.822c53.74-9.081 107.5-9.196 161.15.255 74.852 13.185 119.85 56.23 134.185 130.36 11.075 57.29 11.249 115.191-.174 172.427-15.324 72.52-63.132 117.285-135.561 129.527-53.74 9.08-107.5 9.195-161.15-.255-74.852-13.186-120.05-58.38-134.384-132.509-11.64-57.668-10.52-115.935 1.484-173.82z"/></defs><g fill="none" fill-rule="evenodd" transform="translate(-21 -26)"><g transform="translate(32 33)"><use fill="#000" filter="url(#a)" xlink:href="#b"/><use fill="#F8F9F9" xlink:href="#b"/></g><path fill="#4B4B4B" d="M214.334 137.001h18v84.272l38.892 38.891-12.729 12.728-43.89-43.89h-.273v-92zM225.132 91c76.288 0 138.132 61.844 138.132 138.132 0 24.264-6.264 47.063-17.252 66.88l-14.532-14.533c7.798-15.783 12.188-33.55 12.188-52.347 0-65.354-52.979-118.333-118.334-118.333-65.353 0-118.333 52.979-118.333 118.333s52.98 118.334 118.333 118.334c17.085 0 33.32-3.627 47.988-10.143l14.784 14.782c-18.884 9.69-40.29 15.16-62.974 15.16C148.844 367.265 87 305.42 87 229.132 87 152.844 148.844 91 225.132 91z" transform="translate(32 33)"/></g></svg>